<svg width="1366" height="1232" viewBox="0 0 1366 1232" fill="none" xmlns="http://www.w3.org/2000/svg">
<path d="M283 533.674L683 1231.35H163.982C38.8836 1231.35 -39.4659 1096.12 22.7559 987.589L283 533.674Z" fill="url(#paint0_linear_1215_57)"/>
<path d="M1083 533.674L1343.24 987.589C1405.47 1096.11 1327.12 1231.35 1202.02 1231.35H683L804.034 1020.24L963.235 742.567L1083 533.674Z" fill="url(#paint1_linear_1215_57)"/>
<path d="M541.774 82.3244C604.322 -26.7705 761.678 -26.7707 824.226 82.3243L1083 533.674H523.696H283L541.774 82.3244Z" fill="url(#paint2_linear_1215_57)"/>
<path fill-rule="evenodd" clip-rule="evenodd" d="M504.226 534.999C510.549 534.133 517.045 533.681 523.696 533.674L523.841 533.674" fill="url(#paint3_linear_1215_57)"/>
<path d="M963.235 742.567L1083 533.674H842.159C949.368 533.674 1016.52 649.552 963.235 742.567Z" fill="url(#paint4_linear_1215_57)"/>
<path d="M283 533.674L402.791 742.612C352.791 655.403 408.691 548.074 504.226 534.999C510.549 534.133 517.045 533.681 523.696 533.674H283Z" fill="url(#paint5_linear_1215_57)"/>
<path d="M561.949 1020.21L683 1231.35L804.034 1020.24C750.41 1113.72 615.556 1113.71 561.949 1020.21Z" fill="url(#paint6_linear_1215_57)"/>
<defs>
<linearGradient id="paint0_linear_1215_57" x1="683" y1="-164" x2="683" y2="1231.35" gradientUnits="userSpaceOnUse">
<stop stop-color="#F2B539"/>
<stop offset="1" stop-color="#F7CB73" stop-opacity="0.6"/>
</linearGradient>
<linearGradient id="paint1_linear_1215_57" x1="683" y1="-164" x2="683" y2="1231.35" gradientUnits="userSpaceOnUse">
<stop stop-color="#F2B539"/>
<stop offset="1" stop-color="#F7CB73" stop-opacity="0.6"/>
</linearGradient>
<linearGradient id="paint2_linear_1215_57" x1="683" y1="-164" x2="683" y2="1231.35" gradientUnits="userSpaceOnUse">
<stop stop-color="#F2B539"/>
<stop offset="1" stop-color="#F7CB73" stop-opacity="0.6"/>
</linearGradient>
<linearGradient id="paint3_linear_1215_57" x1="683" y1="-164" x2="683" y2="1231.35" gradientUnits="userSpaceOnUse">
<stop stop-color="#F2B539"/>
<stop offset="1" stop-color="#F7CB73" stop-opacity="0.6"/>
</linearGradient>
<linearGradient id="paint4_linear_1215_57" x1="683" y1="-164" x2="683" y2="1231.35" gradientUnits="userSpaceOnUse">
<stop stop-color="#F2B539"/>
<stop offset="1" stop-color="#F7CB73" stop-opacity="0.6"/>
</linearGradient>
<linearGradient id="paint5_linear_1215_57" x1="683" y1="-164" x2="683" y2="1231.35" gradientUnits="userSpaceOnUse">
<stop stop-color="#F2B539"/>
<stop offset="1" stop-color="#F7CB73" stop-opacity="0.6"/>
</linearGradient>
<linearGradient id="paint6_linear_1215_57" x1="683" y1="-164" x2="683" y2="1231.35" gradientUnits="userSpaceOnUse">
<stop stop-color="#F2B539"/>
<stop offset="1" stop-color="#F7CB73" stop-opacity="0.6"/>
</linearGradient>
</defs>
</svg>
