<svg width="26" height="26" viewBox="0 0 26 26" fill="none" xmlns="http://www.w3.org/2000/svg">
<path d="M13.25 0C6.20665 0 0.5 5.70665 0.5 12.75C0.5 19.7933 6.20665 25.5 13.25 25.5C20.2933 25.5 26 19.7933 26 12.75C26 5.70665 20.2933 0 13.25 0ZM13.25 4.93548C15.7486 4.93548 17.7742 6.96109 17.7742 9.45968C17.7742 11.9583 15.7486 13.9839 13.25 13.9839C10.7514 13.9839 8.72581 11.9583 8.72581 9.45968C8.72581 6.96109 10.7514 4.93548 13.25 4.93548ZM13.25 22.621C10.2322 22.621 7.52792 21.2534 5.71825 19.1147C6.68478 17.2948 8.57671 16.0403 10.7823 16.0403C10.9056 16.0403 11.029 16.0609 11.1473 16.0969C11.8156 16.3128 12.5148 16.4516 13.25 16.4516C13.9852 16.4516 14.6895 16.3128 15.3527 16.0969C15.471 16.0609 15.5944 16.0403 15.7177 16.0403C17.9233 16.0403 19.8152 17.2948 20.7818 19.1147C18.9721 21.2534 16.2678 22.621 13.25 22.621Z" fill="#F6F6F6"/>
</svg>
