<svg width="40" height="40" viewBox="0 0 40 40" fill="none" xmlns="http://www.w3.org/2000/svg">
<path d="M20 5C11.7137 5 5 11.7137 5 20C5 28.2863 11.7137 35 20 35C28.2863 35 35 28.2863 35 20C35 11.7137 28.2863 5 20 5ZM20 10.8065C22.9395 10.8065 25.3226 13.1895 25.3226 16.129C25.3226 19.0685 22.9395 21.4516 20 21.4516C17.0605 21.4516 14.6774 19.0685 14.6774 16.129C14.6774 13.1895 17.0605 10.8065 20 10.8065ZM20 31.6129C17.4911 31.6129 15.1664 30.8095 13.2672 29.4503C11.8419 28.4302 11.6078 26.3576 12.9911 25.2812C14.125 24.3989 15.5449 23.871 17.0968 23.871C17.2419 23.871 17.3871 23.8952 17.5262 23.9375C18.3125 24.1915 19.1351 24.3548 20 24.3548C20.8649 24.3548 21.6935 24.1915 22.4738 23.9375C22.6129 23.8952 22.7581 23.871 22.9032 23.871C24.4551 23.871 25.875 24.3989 27.0089 25.2812C28.3922 26.3576 28.1581 28.4302 26.7328 29.4503C24.8336 30.8095 22.5089 31.6129 20 31.6129Z" fill="#F6F6F6"/>
</svg>
