<svg width="100" height="100" viewBox="0 0 100 100" fill="none" xmlns="http://www.w3.org/2000/svg">
<g clip-path="url(#clip0_516_461)">
<g filter="url(#filter0_f_516_461)">
<path d="M25 41.6046L50 85.2093H25.0877C13.9182 85.2093 6.92268 73.1348 12.4782 63.445L25 41.6046Z" fill="#F99929"/>
<path d="M75 41.6046L87.5218 63.445C93.0773 73.1348 86.0818 85.2093 74.9123 85.2093H50L57.5646 72.0152L67.5147 54.6604L75 41.6046Z" fill="#F99929"/>
<path d="M37.3905 19.9932C42.9752 10.2526 57.0248 10.2526 62.6095 19.9932L75 41.6046H40.0435H25L37.3905 19.9932Z" fill="#F99929"/>
<path d="M57.2674 56.1395C57.2674 60.1532 54.0137 63.407 50 63.407C45.9863 63.407 42.7326 60.1532 42.7326 56.1395C42.7326 52.1258 45.9863 48.8721 50 48.8721C54.0137 48.8721 57.2674 52.1258 57.2674 56.1395Z" fill="#F99929"/>
<path fill-rule="evenodd" clip-rule="evenodd" d="M57.2674 56.1395C57.2674 60.1532 54.0137 63.407 50 63.407C45.9863 63.407 42.7326 60.1532 42.7326 56.1395C42.7326 52.1258 45.9863 48.8721 50 48.8721C54.0137 48.8721 57.2674 52.1258 57.2674 56.1395ZM38.8266 41.6874C39.2218 41.6333 39.6278 41.6051 40.0435 41.6046L40.0526 41.6046" fill="#F99929"/>
<path d="M67.5147 54.6604L75 41.6046H59.9474C66.648 41.6046 70.845 48.847 67.5147 54.6604Z" fill="#F99929"/>
<path d="M42.4343 72.0134L50 85.2093L57.5646 72.0152C54.2131 77.8577 45.7847 77.8571 42.4343 72.0134Z" fill="#F99929"/>
<path d="M25 41.6046L32.4869 54.6632C29.3619 49.2127 32.8557 42.5046 38.8266 41.6874C39.2218 41.6333 39.6278 41.6051 40.0435 41.6046H25Z" fill="#F99929"/>
</g>
<path d="M25 41.6046L50 85.2093H25.0877C13.9182 85.2093 6.92268 73.1348 12.4782 63.445L25 41.6046Z" fill="#F99929"/>
<path d="M75 41.6046L87.5218 63.445C93.0773 73.1348 86.0818 85.2093 74.9123 85.2093H50L57.5646 72.0152L67.5147 54.6604L75 41.6046Z" fill="#F99929"/>
<path d="M37.3905 19.9932C42.9752 10.2526 57.0248 10.2526 62.6095 19.9932L75 41.6046H40.0435H25L37.3905 19.9932Z" fill="#F99929"/>
<path d="M57.2674 56.1395C57.2674 60.1532 54.0137 63.407 50 63.407C45.9863 63.407 42.7326 60.1532 42.7326 56.1395C42.7326 52.1258 45.9863 48.8721 50 48.8721C54.0137 48.8721 57.2674 52.1258 57.2674 56.1395Z" fill="#F99929"/>
<path fill-rule="evenodd" clip-rule="evenodd" d="M57.2674 56.1395C57.2674 60.1532 54.0137 63.407 50 63.407C45.9863 63.407 42.7326 60.1532 42.7326 56.1395C42.7326 52.1258 45.9863 48.8721 50 48.8721C54.0137 48.8721 57.2674 52.1258 57.2674 56.1395ZM38.8266 41.6874C39.2218 41.6333 39.6278 41.6051 40.0435 41.6046L40.0526 41.6046" fill="#F99929"/>
<path d="M67.5147 54.6604L75 41.6046H59.9474C66.648 41.6046 70.845 48.847 67.5147 54.6604Z" fill="#F99929"/>
<path d="M42.4343 72.0134L50 85.2093L57.5646 72.0152C54.2131 77.8577 45.7847 77.8571 42.4343 72.0134Z" fill="#F99929"/>
<path d="M25 41.6046L32.4869 54.6632C29.3619 49.2127 32.8557 42.5046 38.8266 41.6874C39.2218 41.6333 39.6278 41.6051 40.0435 41.6046H25Z" fill="#F99929"/>
</g>
<defs>
<filter id="filter0_f_516_461" x="2.39676" y="4.55331" width="95.2065" height="88.7905" filterUnits="userSpaceOnUse" color-interpolation-filters="sRGB">
<feFlood flood-opacity="0" result="BackgroundImageFix"/>
<feBlend mode="normal" in="SourceGraphic" in2="BackgroundImageFix" result="shape"/>
<feGaussianBlur stdDeviation="4.06725" result="effect1_foregroundBlur_516_461"/>
</filter>
<clipPath id="clip0_516_461">
<rect width="100" height="100" fill="white"/>
</clipPath>
</defs>
</svg>
