<svg width="2048" height="2048" viewBox="0 0 2048 2048" fill="none" xmlns="http://www.w3.org/2000/svg">
<path d="M517.32 875.266L1024.05 1759.1H519.097C292.701 1759.1 150.908 1514.36 263.513 1317.95L517.32 875.266Z" fill="#E7B95D"/>
<path d="M1530.78 875.266L1784.59 1317.95C1897.19 1514.36 1755.4 1759.1 1529 1759.1H1024.05L1177.38 1491.66L1379.06 1139.9L1530.78 875.266Z" fill="#E7B95D"/>
<path d="M768.466 437.22C881.662 239.786 1166.44 239.786 1279.63 437.22L1530.78 875.266H822.24H517.32L768.466 437.22Z" fill="#E7B95D"/>
<path d="M1171.35 1169.88C1171.35 1251.23 1105.4 1317.18 1024.05 1317.18C942.695 1317.18 876.745 1251.23 876.745 1169.88C876.745 1088.52 942.695 1022.57 1024.05 1022.57C1105.4 1022.57 1171.35 1088.52 1171.35 1169.88Z" fill="#E7B95D"/>
<path fill-rule="evenodd" clip-rule="evenodd" d="M1171.35 1169.88C1171.35 1251.23 1105.4 1317.18 1024.05 1317.18C942.695 1317.18 876.745 1251.23 876.745 1169.88C876.745 1088.52 942.695 1022.57 1024.05 1022.57C1105.4 1022.57 1171.35 1088.52 1171.35 1169.88ZM797.574 876.944C805.584 875.848 813.814 875.274 822.24 875.266L822.424 875.266" fill="#E7B95D"/>
<path d="M1379.06 1139.9L1530.78 875.266H1225.68C1361.49 875.266 1446.56 1022.06 1379.06 1139.9Z" fill="#E7B95D"/>
<path d="M870.7 1491.63L1024.05 1759.1L1177.38 1491.66C1109.45 1610.09 938.61 1610.07 870.7 1491.63Z" fill="#E7B95D"/>
<path d="M517.32 875.266L669.074 1139.95C605.733 1029.47 676.548 893.508 797.574 876.944C805.584 875.848 813.814 875.274 822.24 875.266H517.32Z" fill="#E7B95D"/>
</svg>
