<svg width="256" height="49" viewBox="0 0 256 49" fill="none" xmlns="http://www.w3.org/2000/svg">
<g filter="url(#filter0_f_519_463)">
<path d="M13.6871 22.5L26.5871 45H12.2605C7.15236 45 3.95308 39.478 6.49381 35.0465L13.6871 22.5Z" fill="#F99929"/>
<path d="M39.4871 22.5L46.6804 35.0465C49.2211 39.4779 46.0219 45 40.9137 45H26.5871L30.4905 38.1918L35.6247 29.2368L39.4871 22.5Z" fill="#F99929"/>
<path d="M20.8204 10.0582C23.3744 5.60354 29.7998 5.60353 32.3538 10.0582L39.4871 22.5H21.4496H13.6871L20.8204 10.0582Z" fill="#F99929"/>
<path d="M30.3371 30C30.3371 32.0711 28.6582 33.75 26.5871 33.75C24.516 33.75 22.8371 32.0711 22.8371 30C22.8371 27.9289 24.516 26.25 26.5871 26.25C28.6582 26.25 30.3371 27.9289 30.3371 30Z" fill="#F99929"/>
<path fill-rule="evenodd" clip-rule="evenodd" d="M30.3371 30C30.3371 32.0711 28.6582 33.75 26.5871 33.75C24.516 33.75 22.8371 32.0711 22.8371 30C22.8371 27.9289 24.516 26.25 26.5871 26.25C28.6582 26.25 30.3371 27.9289 30.3371 30ZM20.8216 22.5427C21.0256 22.5148 21.2351 22.5002 21.4496 22.5L21.4542 22.5" fill="#F99929"/>
<path d="M35.6247 29.2368L39.4871 22.5H31.72C35.1775 22.5 37.3431 26.237 35.6247 29.2368Z" fill="#F99929"/>
<path d="M22.6832 38.1909L26.5871 45L30.4905 38.1918C28.7611 41.2066 24.412 41.2063 22.6832 38.1909Z" fill="#F99929"/>
<path d="M13.6871 22.5L17.5504 29.2382C15.9379 26.4257 17.7406 22.9644 20.8216 22.5427C21.0256 22.5148 21.2351 22.5002 21.4496 22.5H13.6871Z" fill="#F99929"/>
</g>
<path d="M13.6871 22.5L26.5871 45H12.2605C7.15236 45 3.95308 39.478 6.49381 35.0465L13.6871 22.5Z" fill="#F99929"/>
<path d="M39.4871 22.5L46.6804 35.0465C49.2211 39.4779 46.0219 45 40.9137 45H26.5871L30.4905 38.1918L35.6247 29.2368L39.4871 22.5Z" fill="#F99929"/>
<path d="M20.8204 10.0582C23.3744 5.60354 29.7998 5.60353 32.3538 10.0582L39.4871 22.5H21.4496H13.6871L20.8204 10.0582Z" fill="#F99929"/>
<path d="M30.3371 30C30.3371 32.0711 28.6582 33.75 26.5871 33.75C24.516 33.75 22.8371 32.0711 22.8371 30C22.8371 27.9289 24.516 26.25 26.5871 26.25C28.6582 26.25 30.3371 27.9289 30.3371 30Z" fill="#F99929"/>
<path fill-rule="evenodd" clip-rule="evenodd" d="M30.3371 30C30.3371 32.0711 28.6582 33.75 26.5871 33.75C24.516 33.75 22.8371 32.0711 22.8371 30C22.8371 27.9289 24.516 26.25 26.5871 26.25C28.6582 26.25 30.3371 27.9289 30.3371 30ZM20.8216 22.5427C21.0256 22.5148 21.2351 22.5002 21.4496 22.5L21.4542 22.5" fill="#F99929"/>
<path d="M35.6247 29.2368L39.4871 22.5H31.72C35.1775 22.5 37.3431 26.237 35.6247 29.2368Z" fill="#F99929"/>
<path d="M22.6832 38.1909L26.5871 45L30.4905 38.1918C28.7611 41.2066 24.412 41.2063 22.6832 38.1909Z" fill="#F99929"/>
<path d="M13.6871 22.5L17.5504 29.2382C15.9379 26.4257 17.7406 22.9644 20.8216 22.5427C21.0256 22.5148 21.2351 22.5002 21.4496 22.5H13.6871Z" fill="#F99929"/>
<g filter="url(#filter1_f_519_463)">
<path d="M63.9098 39V13.224H70.7858V32.844H81.9098V39H63.9098ZM95.8002 39.432C93.6162 39.432 91.6842 39.108 90.0042 38.46C88.3482 37.812 87.0522 36.804 86.1162 35.436C85.1802 34.068 84.7122 32.292 84.7122 30.108V13.224H91.5522V29.388C91.5522 30.468 91.8882 31.356 92.5602 32.052C93.2322 32.724 94.3122 33.06 95.8002 33.06C97.2882 33.06 98.3562 32.724 99.0042 32.052C99.6522 31.356 99.9762 30.468 99.9762 29.388V13.224H106.852V30.108C106.852 32.292 106.384 34.068 105.448 35.436C104.512 36.804 103.216 37.812 101.56 38.46C99.9042 39.108 97.9842 39.432 95.8002 39.432ZM108.802 39L116.722 25.932L109.378 13.224H117.694L122.014 21.18L126.37 13.224H134.686L127.306 25.932L135.262 39H126.658L122.014 30.648L117.406 39H108.802ZM137.632 39V13.224H155.74V19.38H144.508V23.448H154.948V28.452H144.508V32.844H155.74V39H137.632ZM182.958 39H175.398L170.07 30.288H166.938V39H160.062V13.224H171.906C174.378 13.224 176.43 14.028 178.062 15.636C179.694 17.22 180.51 19.32 180.51 21.936C180.51 23.592 180.162 25.02 179.466 26.22C178.794 27.42 177.858 28.344 176.658 28.992L182.958 39ZM170.898 24.492C171.642 24.492 172.23 24.276 172.662 23.844C173.118 23.412 173.346 22.776 173.346 21.936C173.346 20.304 172.53 19.452 170.898 19.38H166.938V24.492H170.898ZM184.918 39V13.224H191.794V39H184.918ZM207.913 39.432C205.729 39.432 203.797 39.108 202.117 38.46C200.461 37.812 199.165 36.804 198.229 35.436C197.293 34.068 196.825 32.292 196.825 30.108V13.224H203.665V29.388C203.665 30.468 204.001 31.356 204.673 32.052C205.345 32.724 206.425 33.06 207.913 33.06C209.401 33.06 210.469 32.724 211.117 32.052C211.765 31.356 212.089 30.468 212.089 29.388V13.224H218.965V30.108C218.965 32.292 218.497 34.068 217.561 35.436C216.625 36.804 215.329 37.812 213.673 38.46C212.017 39.108 210.097 39.432 207.913 39.432ZM224.011 39V13.224H231.931L237.727 29.208L243.523 13.224H251.443V39H245.179V24.852L239.887 39H235.603L230.311 24.852V39H224.011Z" fill="#F99929"/>
</g>
<path d="M63.9098 39V13.224H70.7858V32.844H81.9098V39H63.9098ZM95.8002 39.432C93.6162 39.432 91.6842 39.108 90.0042 38.46C88.3482 37.812 87.0522 36.804 86.1162 35.436C85.1802 34.068 84.7122 32.292 84.7122 30.108V13.224H91.5522V29.388C91.5522 30.468 91.8882 31.356 92.5602 32.052C93.2322 32.724 94.3122 33.06 95.8002 33.06C97.2882 33.06 98.3562 32.724 99.0042 32.052C99.6522 31.356 99.9762 30.468 99.9762 29.388V13.224H106.852V30.108C106.852 32.292 106.384 34.068 105.448 35.436C104.512 36.804 103.216 37.812 101.56 38.46C99.9042 39.108 97.9842 39.432 95.8002 39.432ZM108.802 39L116.722 25.932L109.378 13.224H117.694L122.014 21.18L126.37 13.224H134.686L127.306 25.932L135.262 39H126.658L122.014 30.648L117.406 39H108.802ZM137.632 39V13.224H155.74V19.38H144.508V23.448H154.948V28.452H144.508V32.844H155.74V39H137.632ZM182.958 39H175.398L170.07 30.288H166.938V39H160.062V13.224H171.906C174.378 13.224 176.43 14.028 178.062 15.636C179.694 17.22 180.51 19.32 180.51 21.936C180.51 23.592 180.162 25.02 179.466 26.22C178.794 27.42 177.858 28.344 176.658 28.992L182.958 39ZM170.898 24.492C171.642 24.492 172.23 24.276 172.662 23.844C173.118 23.412 173.346 22.776 173.346 21.936C173.346 20.304 172.53 19.452 170.898 19.38H166.938V24.492H170.898ZM184.918 39V13.224H191.794V39H184.918ZM207.913 39.432C205.729 39.432 203.797 39.108 202.117 38.46C200.461 37.812 199.165 36.804 198.229 35.436C197.293 34.068 196.825 32.292 196.825 30.108V13.224H203.665V29.388C203.665 30.468 204.001 31.356 204.673 32.052C205.345 32.724 206.425 33.06 207.913 33.06C209.401 33.06 210.469 32.724 211.117 32.052C211.765 31.356 212.089 30.468 212.089 29.388V13.224H218.965V30.108C218.965 32.292 218.497 34.068 217.561 35.436C216.625 36.804 215.329 37.812 213.673 38.46C212.017 39.108 210.097 39.432 207.913 39.432ZM224.011 39V13.224H231.931L237.727 29.208L243.523 13.224H251.443V39H245.179V24.852L239.887 39H235.603L230.311 24.852V39H224.011Z" fill="#F99929"/>
<defs>
<filter id="filter0_f_519_463" x="1.88334" y="2.99705" width="49.4081" height="45.7231" filterUnits="userSpaceOnUse" color-interpolation-filters="sRGB">
<feFlood flood-opacity="0" result="BackgroundImageFix"/>
<feBlend mode="normal" in="SourceGraphic" in2="BackgroundImageFix" result="shape"/>
<feGaussianBlur stdDeviation="1.86009" result="effect1_foregroundBlur_519_463"/>
</filter>
<filter id="filter1_f_519_463" x="59.9102" y="9.224" width="195.533" height="34.208" filterUnits="userSpaceOnUse" color-interpolation-filters="sRGB">
<feFlood flood-opacity="0" result="BackgroundImageFix"/>
<feBlend mode="normal" in="SourceGraphic" in2="BackgroundImageFix" result="shape"/>
<feGaussianBlur stdDeviation="2" result="effect1_foregroundBlur_519_463"/>
</filter>
</defs>
</svg>
