<svg width="330" height="60" viewBox="0 0 330 60" fill="none" xmlns="http://www.w3.org/2000/svg">
<path d="M12.2519 26.4419L24.5039 47.8837H12.3158C6.82799 47.8837 3.38751 41.9553 6.11012 37.1905L12.2519 26.4419Z" fill="#E7B95D"/>
<path d="M36.7558 26.4419L42.8976 37.1905C45.6202 41.9553 42.1797 47.8837 36.6919 47.8837H24.5039L28.2111 41.3957L33.0874 32.8618L36.7558 26.4419Z" fill="#E7B95D"/>
<path d="M18.2982 15.8604C21.042 11.0586 27.9657 11.0586 30.7095 15.8604L36.7558 26.4419H19.6244H12.2519L18.2982 15.8604Z" fill="#E7B95D"/>
<path d="M28.0655 33.5891C28.0655 35.5628 26.4709 37.1628 24.5039 37.1628C22.5368 37.1628 20.9422 35.5628 20.9422 33.5891C20.9422 31.6155 22.5368 30.0155 24.5039 30.0155C26.4709 30.0155 28.0655 31.6155 28.0655 33.5891Z" fill="#E7B95D"/>
<path fill-rule="evenodd" clip-rule="evenodd" d="M28.0655 33.5891C28.0655 35.5628 26.4709 37.1628 24.5039 37.1628C22.5368 37.1628 20.9422 35.5628 20.9422 33.5891C20.9422 31.6155 22.5368 30.0155 24.5039 30.0155C26.4709 30.0155 28.0655 31.6155 28.0655 33.5891ZM19.028 26.4826C19.2217 26.456 19.4207 26.4421 19.6244 26.4419L19.6289 26.4419" fill="#E7B95D"/>
<path d="M33.0874 32.8618L36.7558 26.4419H29.3788C32.6627 26.4419 34.7195 30.0032 33.0874 32.8618Z" fill="#E7B95D"/>
<path d="M20.7961 41.3948L24.5039 47.8837L28.2111 41.3957C26.5686 44.2687 22.4381 44.2684 20.7961 41.3948Z" fill="#E7B95D"/>
<path d="M12.2519 26.4419L15.9211 32.8632C14.3896 30.183 16.1018 26.8844 19.028 26.4826C19.2217 26.456 19.4207 26.4421 19.6244 26.4419H12.2519Z" fill="#E7B95D"/>
<path d="M62.2334 49V12.7854H71.894V40.351H87.523V49H62.2334ZM107.039 49.6069C103.97 49.6069 101.256 49.1517 98.8953 48.2413C96.5687 47.3309 94.7479 45.9147 93.4328 43.9927C92.1177 42.0707 91.4602 39.5754 91.4602 36.507V12.7854H101.07V35.4954C101.07 37.0128 101.542 38.2604 102.486 39.2382C103.431 40.1824 104.948 40.6545 107.039 40.6545C109.129 40.6545 110.63 40.1824 111.54 39.2382C112.451 38.2604 112.906 37.0128 112.906 35.4954V12.7854H122.566V36.507C122.566 39.5754 121.909 42.0707 120.594 43.9927C119.279 45.9147 117.458 47.3309 115.131 48.2413C112.805 49.1517 110.107 49.6069 107.039 49.6069ZM125.306 49L136.433 30.6398L126.115 12.7854H137.799L143.868 23.9634L149.989 12.7854H161.672L151.304 30.6398L162.482 49H150.393L143.868 37.2657L137.394 49H125.306ZM165.812 49V12.7854H191.253V21.4344H175.472V27.1498H190.14V34.1803H175.472V40.351H191.253V49H165.812ZM229.493 49H218.872L211.386 36.7599H206.986V49H197.325V12.7854H213.966C217.439 12.7854 220.322 13.915 222.615 16.1742C224.907 18.3997 226.054 21.3501 226.054 25.0255C226.054 27.3522 225.565 29.3585 224.587 31.0444C223.643 32.7304 222.328 34.0286 220.642 34.939L229.493 49ZM212.549 28.6166C213.595 28.6166 214.421 28.3132 215.028 27.7062C215.668 27.0993 215.989 26.2057 215.989 25.0255C215.989 22.7326 214.842 21.5356 212.549 21.4344H206.986V28.6166H212.549ZM232.246 49V12.7854H241.907V49H232.246ZM264.555 49.6069C261.486 49.6069 258.772 49.1517 256.412 48.2413C254.085 47.3309 252.264 45.9147 250.949 43.9927C249.634 42.0707 248.977 39.5754 248.977 36.507V12.7854H258.587V35.4954C258.587 37.0128 259.059 38.2604 260.003 39.2382C260.947 40.1824 262.464 40.6545 264.555 40.6545C266.645 40.6545 268.146 40.1824 269.056 39.2382C269.967 38.2604 270.422 37.0128 270.422 35.4954V12.7854H280.083V36.507C280.083 39.5754 279.425 42.0707 278.11 43.9927C276.795 45.9147 274.974 47.3309 272.648 48.2413C270.321 49.1517 267.623 49.6069 264.555 49.6069ZM287.172 49V12.7854H298.299L306.443 35.2425L314.586 12.7854H325.713V49H316.913V29.1224L309.477 49H303.458L296.023 29.1224V49H287.172Z" fill="#E7B95D"/>
</svg>
