<svg width="40" height="40" viewBox="0 0 40 40" fill="none" xmlns="http://www.w3.org/2000/svg">
<path d="M15.0491 36.15L18.9324 32.8833C19.5158 32.3833 20.4824 32.3833 21.0658 32.8833L24.9491 36.15C25.8491 36.6 26.9491 36.15 27.2824 35.1833L28.0158 32.9666C28.1991 32.4333 28.0158 31.65 27.6158 31.25L23.8324 27.45C23.5491 27.1833 23.3324 26.65 23.3324 26.2666V21.5166C23.3324 20.8166 23.8491 20.4833 24.4991 20.75L32.6824 24.2833C33.9658 24.8333 35.0158 24.15 35.0158 22.75V20.6C35.0158 19.4833 34.1824 18.2 33.1491 17.7666L23.8324 13.75C23.5658 13.6333 23.3324 13.2833 23.3324 12.9833V7.98331C23.3324 6.41664 22.1824 4.56664 20.7824 3.84998C20.2824 3.59998 19.6991 3.59998 19.1991 3.84998C17.7991 4.56664 16.6491 6.43331 16.6491 7.99998V13C16.6491 13.3 16.4158 13.65 16.1491 13.7666L6.84909 17.7833C5.81576 18.2 4.98242 19.4833 4.98242 20.6V22.75C4.98242 24.15 6.03242 24.8333 7.31575 24.2833L15.4991 20.75C16.1324 20.4666 16.6658 20.8166 16.6658 21.5166V26.2666C16.6658 26.65 16.4491 27.1833 16.1824 27.45L12.3991 31.25C11.9991 31.65 11.8158 32.4166 11.9991 32.9666L12.7324 35.1833C13.0324 36.15 14.1324 36.6166 15.0491 36.15Z" stroke="#F6F6F6" stroke-width="2.5" stroke-linecap="round" stroke-linejoin="round"/>
</svg>
