<svg width="40" height="40" viewBox="0 0 40 40" fill="none" xmlns="http://www.w3.org/2000/svg">
<path d="M27.1686 15H26.1686C25.502 15 25.002 15.5 25.002 16.1667V17.1667C25.002 17.8333 25.502 18.3333 26.1686 18.3333H27.1686C27.8353 18.3333 28.3353 17.8333 28.3353 17.1667V16.1667C28.3353 15.5 27.8353 15 27.1686 15Z" fill="#F6F6F6"/>
<path d="M35.0016 31.6667V12.5C35.0016 10.3333 33.6683 8.49999 31.6683 7.49999L25.335 4.83332C24.1683 4.33332 22.835 4.49999 21.6683 5.16666C20.6683 5.83332 20.0016 6.99999 20.0016 8.33332V15.5L8.66829 19.3333C6.50163 20 5.00163 22 5.00163 24.3333V31.6667C4.00163 31.6667 3.33496 32.3333 3.33496 33.3333C3.33496 34.3333 4.00163 35 5.00163 35H6.66829H11.6683H16.6683H21.6683H33.335H35.0016C36.0016 35 36.6683 34.3333 36.6683 33.3333C36.6683 32.3333 36.0016 31.6667 35.0016 31.6667ZM15.0016 31.6667H13.335V30H15.0016V31.6667ZM20.0016 31.6667H18.335V28.3333C18.335 27.3333 17.6683 26.6667 16.6683 26.6667H11.6683C10.6683 26.6667 10.0016 27.3333 10.0016 28.3333V31.6667H8.33496V24.3333C8.33496 23.5 8.83496 22.6667 9.66829 22.3333L20.0016 18.8333V31.6667ZM31.6683 31.6667H30.0016V26.6667C30.0016 25.6667 29.335 25 28.335 25H26.6683C25.6683 25 25.0016 25.6667 25.0016 26.6667V31.6667H23.335V16.6667V8.33332C23.335 8.16666 23.5016 7.99999 23.5016 7.83332C23.6683 7.83332 23.835 7.66666 24.0016 7.83332L30.335 10.5C31.1683 10.8333 31.6683 11.6667 31.6683 12.5V31.6667Z" fill="#F6F6F6"/>
</svg>
