<svg width="40" height="40" viewBox="0 0 40 40" fill="none" xmlns="http://www.w3.org/2000/svg">
<path d="M5 30.5L6.26 31.13C6.90986 31.4548 7.6227 31.6341 8.3489 31.6554C9.0751 31.6767 9.79722 31.5395 10.465 31.2533L12.1983 30.51C12.8206 30.2434 13.4905 30.1059 14.1675 30.1059C14.8445 30.1059 15.5144 30.2434 16.1367 30.51L17.87 31.2533C18.5378 31.5395 19.2599 31.6767 19.9861 31.6554C20.7123 31.6341 21.4251 31.4548 22.075 31.13L22.7633 30.785C23.4578 30.4377 24.2235 30.2568 25 30.2568C25.7765 30.2568 26.5422 30.4377 27.2367 30.785L28.1483 31.24C29.3342 31.833 30.7071 31.9307 31.965 31.5117L35 30.5M8.33333 26.3333L6.66667 18.8333H13.3333M13.3333 18.8333V13.8333H21.2983L22.5 18.8333M13.3333 18.8333H22.5M30 26.3333L34.1667 18.8333H20.425H22.5M18.3333 23.8333H18.5M16.6667 9.66667L16.3333 9.33333C15.9262 8.9267 15.4207 8.6324 14.8661 8.47906C14.3114 8.32573 13.7265 8.31859 13.1683 8.45833L12.6083 8.59833C11.9931 8.7522 11.3466 8.72734 10.745 8.52667L9.16667 8" stroke="#F6F6F6" stroke-width="3.33333" stroke-linecap="round" stroke-linejoin="round"/>
</svg>
