<svg width="40" height="40" viewBox="0 0 40 40" fill="none" xmlns="http://www.w3.org/2000/svg">
<g clip-path="url(#clip0_473_323)">
<path d="M28.6617 9.09998C28.5539 8.88028 28.3894 8.69337 28.1852 8.55858C27.9809 8.42379 27.7444 8.34602 27.5 8.33331H12.5C12.2556 8.34602 12.0191 8.42379 11.8149 8.55858C11.6106 8.69337 11.4461 8.88028 11.3383 9.09998L8.025 16.83L8.80834 15H5V17.5C5.00044 17.7209 5.08838 17.9326 5.24457 18.0887C5.40075 18.2449 5.61246 18.3329 5.83334 18.3333C6.01423 18.0971 6.21923 17.8804 6.445 17.6866C5.99068 18.0832 5.62662 18.5725 5.37736 19.1216C5.1281 19.6708 4.99942 20.2669 5 20.87V32.5C5.00044 32.7209 5.08838 32.9326 5.24457 33.0887C5.40075 33.2449 5.61246 33.3329 5.83334 33.3333H9.16667C9.38755 33.3329 9.59925 33.2449 9.75544 33.0887C9.91162 32.9326 9.99956 32.7209 10 32.5V29.4483C13.3178 29.8489 16.6582 30.0332 20 30C23.3423 30.0332 26.6833 29.8489 30.0017 29.4483L30 32.5C30.0004 32.7209 30.0884 32.9326 30.2446 33.0887C30.4008 33.2449 30.6125 33.3329 30.8333 33.3333H34.1667C34.3876 33.3329 34.5993 33.2449 34.7554 33.0887C34.9116 32.9326 34.9996 32.7209 35 32.5V20.87C34.9995 20.2669 34.8698 19.6709 34.6197 19.122C34.3696 18.5732 34.0049 18.0844 33.55 17.6883C33.7715 17.8818 33.972 18.098 34.1483 18.3333H34.1667C34.3876 18.3329 34.5993 18.2449 34.7554 18.0887C34.9116 17.9326 34.9996 17.7209 35 17.5V15H31.19L28.6617 9.09998ZM12.7667 9.99998H27.2333L30.0917 16.6666H9.90834L12.7667 9.99998ZM8.33334 31.6666H6.66667V28.6833C6.9831 28.8697 7.32838 29.0021 7.68834 29.075C7.885 29.115 8.11167 29.155 8.33334 29.1933V31.6666ZM33.3333 31.6666H31.6667V29.1933C31.8883 29.155 32.115 29.115 32.3117 29.0766C32.6717 29.0031 33.0169 28.8701 33.3333 28.6833V31.6666ZM32.4583 18.9466C32.7332 19.1861 32.9535 19.4816 33.1044 19.8134C33.2554 20.1452 33.3334 20.5055 33.3333 20.87V25.78C33.3346 26.1697 33.2013 26.5479 32.9559 26.8506C32.7106 27.1534 32.3682 27.3622 31.9867 27.4416C28.023 28.0726 24.0134 28.3709 20 28.3333C15.9866 28.3703 11.9771 28.072 8.01334 27.4416C7.63182 27.3622 7.28944 27.1534 7.04407 26.8506C6.7987 26.5479 6.66539 26.1697 6.66667 25.78V20.87C6.66611 20.5051 6.74378 20.1443 6.89443 19.812C7.04508 19.4796 7.26521 19.1834 7.54 18.9433C7.81437 18.7056 8.13751 18.531 8.48667 18.4316L8.82667 18.3333H31.17L31.5117 18.4333C31.8609 18.5333 32.184 18.7085 32.4583 18.9466ZM28.3333 21.6666H31.6667V23.3333C31.6667 23.7753 31.4911 24.1993 31.1785 24.5118C30.866 24.8244 30.442 25 30 25H26.6667L28.3333 21.6666ZM11.6667 21.6666L13.3333 25H10C9.55797 25 9.13405 24.8244 8.82149 24.5118C8.50893 24.1993 8.33334 23.7753 8.33334 23.3333V21.6666H11.6667ZM15 23.3333H25V25H15V23.3333Z" fill="#F6F6F6"/>
</g>
<defs>
<clipPath id="clip0_473_323">
<rect width="40" height="40" fill="white"/>
</clipPath>
</defs>
</svg>
